<svg xmlns="http://www.w3.org/2000/svg" viewBox="0 0 300 200" width="300" height="200">
  <rect width="300" height="200" fill="white" rx="12"/>
  <!-- Header -->
  <rect x="0" y="0" width="300" height="38" fill="white" rx="12"/>
  <line x1="0" y1="38" x2="300" y2="38" stroke="#F3F4F6" stroke-width="1"/>
  <text x="18" y="24" font-family="sans-serif" font-size="14" fill="#1A1A2E" font-weight="700">실시간 환율</text>
  <text x="230" y="24" font-family="sans-serif" font-size="9" fill="#9CA3AF">09:00 기준</text>

  <!-- Row 1 USD -->
  <rect x="0" y="38" width="300" height="40" fill="white"/>
  <text x="18" y="64" font-family="sans-serif" font-size="18">🇺🇸</text>
  <text x="46" y="58" font-family="sans-serif" font-size="11" fill="#1A1A2E" font-weight="700">USD</text>
  <text x="46" y="70" font-family="sans-serif" font-size="9" fill="#9CA3AF">미국 달러</text>
  <text x="160" y="57" font-family="sans-serif" font-size="8" fill="#9CA3AF">살 때</text>
  <text x="160" y="69" font-family="sans-serif" font-size="11" fill="#1A1A2E" font-weight="600">1,325.50</text>
  <text x="220" y="57" font-family="sans-serif" font-size="8" fill="#9CA3AF">팔 때</text>
  <text x="220" y="69" font-family="sans-serif" font-size="11" fill="#1A1A2E" font-weight="600">1,296.50</text>
  <rect x="272" y="52" width="22" height="14" fill="#FEF2F2" rx="4"/>
  <text x="283" y="62" font-family="sans-serif" font-size="8" fill="#DC2626" text-anchor="middle" font-weight="700">▲3.5</text>

  <!-- Row 2 EUR -->
  <rect x="0" y="78" width="300" height="40" fill="#FAFAFA"/>
  <text x="18" y="104" font-family="sans-serif" font-size="18">🇪🇺</text>
  <text x="46" y="98" font-family="sans-serif" font-size="11" fill="#1A1A2E" font-weight="700">EUR</text>
  <text x="46" y="110" font-family="sans-serif" font-size="9" fill="#9CA3AF">유럽 유로</text>
  <text x="160" y="97" font-family="sans-serif" font-size="8" fill="#9CA3AF">살 때</text>
  <text x="160" y="109" font-family="sans-serif" font-size="11" fill="#1A1A2E" font-weight="600">1,445.20</text>
  <text x="220" y="97" font-family="sans-serif" font-size="8" fill="#9CA3AF">팔 때</text>
  <text x="220" y="109" font-family="sans-serif" font-size="11" fill="#1A1A2E" font-weight="600">1,408.30</text>
  <rect x="272" y="92" width="22" height="14" fill="#EFF6FF" rx="4"/>
  <text x="283" y="102" font-family="sans-serif" font-size="8" fill="#2563EB" text-anchor="middle" font-weight="700">▼5.2</text>

  <!-- Row 3 JPY -->
  <rect x="0" y="118" width="300" height="40" fill="white"/>
  <text x="18" y="144" font-family="sans-serif" font-size="18">🇯🇵</text>
  <text x="46" y="138" font-family="sans-serif" font-size="11" fill="#1A1A2E" font-weight="700">JPY</text>
  <text x="46" y="150" font-family="sans-serif" font-size="9" fill="#9CA3AF">일본 엔화</text>
  <text x="160" y="137" font-family="sans-serif" font-size="8" fill="#9CA3AF">살 때</text>
  <text x="160" y="149" font-family="sans-serif" font-size="11" fill="#1A1A2E" font-weight="600">944.85</text>
  <text x="220" y="137" font-family="sans-serif" font-size="8" fill="#9CA3AF">팔 때</text>
  <text x="220" y="149" font-family="sans-serif" font-size="11" fill="#1A1A2E" font-weight="600">923.25</text>
  <rect x="272" y="132" width="22" height="14" fill="#FEF2F2" rx="4"/>
  <text x="283" y="142" font-family="sans-serif" font-size="8" fill="#DC2626" text-anchor="middle" font-weight="700">▲1.1</text>

  <!-- Footer button -->
  <rect x="12" y="166" width="276" height="26" fill="#0046A4" rx="10"/>
  <text x="150" y="183" font-family="sans-serif" font-size="11" fill="white" text-anchor="middle" font-weight="600">환전 신청</text>
</svg>
